# Blender v2.79 (sub 0) OBJ File: 'bowl.blend'
# www.blender.org
mtllib bowl.mtl
o s4studio_mesh_1
v -0.088565 0.063112 -0.064852
v -0.102390 0.063112 -0.013306
v -0.102390 0.112430 -0.013306
v -0.076876 0.112430 0.065004
v -0.088565 0.063112 0.051027
v -0.102390 0.112430 -0.013306
v -0.066408 0.032350 -0.019135
v 0.049806 0.036256 -0.049623
v -0.017273 0.038514 -0.067598
v 0.084841 0.063112 -0.055696
v 0.088687 0.108249 -0.051790
v 0.103793 0.063112 -0.000519
v 0.103793 0.112430 -0.015046
v 0.088534 0.063112 0.047182
v 0.089969 0.104587 0.051027
v 0.050813 0.063112 0.084902
v 0.052248 0.106723 0.088778
v 0.000702 0.063112 0.102573
v -0.018983 0.112430 0.098422
v -0.102390 0.063112 -0.013306
v -0.049867 0.092776 0.086734
v -0.050844 0.063112 0.088778
v 0.084841 0.063112 -0.055696
v 0.000702 0.112430 -0.107120
v 0.000702 0.063112 -0.098910
v -0.050844 0.112430 -0.095553
v -0.050844 0.063112 -0.087344
v -0.088565 0.112430 -0.064852
v -0.040315 0.000153 -0.071566
v 0.000702 0.017365 -0.082553
v -0.040315 0.017365 -0.071566
v -0.070345 0.000153 -0.041536
v -0.040315 0.017365 0.070559
v 0.000702 0.041231 0.099307
v -0.049196 0.041231 0.085940
v 0.041719 0.017365 0.070559
v 0.055300 0.074618 -0.100467
v 0.085696 0.041231 0.045534
v 0.103793 0.112430 -0.015046
v 0.052248 0.112430 -0.095187
v 0.052248 0.106723 0.088778
v 0.089969 0.104587 0.051027
v 0.109897 0.109745 -0.015046
v 0.109897 0.109745 -0.015046
v -0.081637 0.109745 0.068300
v 0.055300 0.104068 0.094058
v -0.081637 0.109745 0.068300
v -0.108463 0.109745 -0.013306
v -0.093844 0.109745 -0.067904
v -0.053896 0.109745 -0.100833
v 0.055300 0.109745 -0.100467
v 0.109897 0.074618 -0.000519
v 0.000702 0.109745 -0.113193
v 0.093966 0.105564 -0.054842
v -0.108463 0.074618 -0.013306
v 0.000702 0.074618 -0.113193
v -0.093844 0.074618 -0.067904
v -0.070345 0.017365 0.040529
v -0.085726 0.041231 0.049409
v -0.049196 0.041231 -0.086947
v -0.070345 0.017365 -0.041536
v 0.049165 0.041231 0.082064
v 0.082736 0.017365 -0.000519
v -0.018983 0.112430 0.098422
v 0.052248 0.063112 -0.086978
v -0.049867 0.092776 0.086734
v 0.095248 0.101901 0.054079
v -0.020295 0.109745 0.103702
v 0.000702 0.109745 -0.113193
v 0.053865 0.074618 0.090182
v 0.093814 0.074618 0.050203
v -0.099094 0.041231 -0.013306
v 0.000702 0.041231 -0.093265
v -0.040315 0.017365 -0.071566
v 0.041719 0.017365 0.070559
v 0.100497 0.041231 -0.000519
v 0.000702 0.074618 -0.113193
v 0.052248 0.112430 -0.095187
v 0.052248 0.106723 0.088778
v -0.018983 0.112430 0.098422
v -0.076876 0.112430 0.065004
v -0.049867 0.092776 0.086734
v 0.055300 0.104068 0.094058
v -0.020295 0.109745 0.103702
v -0.052217 0.090091 0.090793
v 0.053865 0.074618 0.090182
v -0.093844 0.074618 0.054079
v 0.000702 0.017365 -0.082553
v -0.081332 0.017365 -0.000519
v 0.000702 0.041231 -0.093265
v -0.085726 0.041231 -0.063204
v 0.095248 0.070406 -0.054842
v 0.049165 0.041231 0.082064
v -0.053896 0.074618 -0.100833
v 0.103793 0.112430 -0.015046
v 0.088687 0.108249 -0.051790
v -0.052217 0.090091 0.090793
v -0.076876 0.112430 0.065004
v -0.102390 0.112430 -0.013306
v 0.088687 0.108249 -0.051790
v 0.000702 0.112430 -0.107120
v -0.088565 0.112430 -0.064852
v -0.050844 0.112430 -0.095553
v 0.000702 0.112430 -0.107120
v -0.053896 0.074618 0.094058
v 0.000702 0.074618 0.108676
v 0.000702 0.017365 -0.082553
v 0.000702 0.017365 0.081545
v 0.050600 0.041231 -0.086947
v 0.071749 0.017365 0.040529
v -0.070345 0.000153 -0.041536
v 0.082736 0.000153 -0.000519
v 0.000702 0.000153 -0.082553
v -0.040315 0.000153 -0.071566
v -0.081332 0.000153 -0.000519
v 0.000702 0.038514 0.071413
v 0.041719 0.000153 -0.071566
v 0.049806 0.036256 0.048616
v 0.071749 0.000153 -0.041536
v 0.072604 0.030702 -0.000519
v 0.000702 0.000153 0.081545
v 0.049806 0.036256 -0.049623
v 0.071749 0.017365 -0.041536
v -0.081332 0.017365 -0.000519
v 0.041719 0.017365 -0.071566
v 0.087130 0.041231 -0.050417
v 0.082736 0.017365 -0.000519
v 0.041719 0.000153 0.070559
v -0.070345 0.000153 0.040529
v 0.071749 0.000153 0.040529
v 0.041719 0.000153 0.070559
v -0.040315 0.000153 0.070559
v 0.082736 0.000153 -0.000519
v 0.071749 0.017365 0.040529
v 0.041719 0.000153 0.070559
v 0.000702 0.017365 0.081545
v 0.041719 0.017365 0.070559
v 0.000702 0.000153 0.081545
v -0.102390 0.063112 -0.013306
v -0.066408 0.032350 -0.019135
v -0.048402 0.036256 0.048616
v -0.081332 0.000153 -0.000519
v -0.070345 0.000153 0.040529
v -0.070345 0.017365 0.040529
v 0.071749 0.000153 0.040529
v 0.041719 0.017365 0.070559
v -0.040315 0.000153 0.070559
v -0.040315 0.017365 0.070559
v -0.070345 0.017365 -0.041536
v 0.000702 0.000153 -0.082553
v 0.000702 0.017365 -0.082553
v 0.041719 0.017365 -0.071566
v 0.000702 0.000153 -0.082553
v 0.071749 0.000153 -0.041536
v 0.041719 0.000153 -0.071566
v 0.071749 0.017365 -0.041536
vt 0.664845 0.683480
vt 0.671128 0.685155
vt 0.677441 0.683480
vt 0.660237 0.678872
vt 0.682049 0.678872
vt 0.683724 0.672559
vt 0.658532 0.672559
vt 0.660237 0.666276
vt 0.682049 0.666276
vt 0.664845 0.661668
vt 0.677441 0.661668
vt 0.671128 0.659963
vt 0.138229 0.835561
vt 0.199265 0.968435
vt 0.129433 0.965263
vt 0.216559 0.819225
vt 0.519585 0.872602
vt 0.486913 0.982168
vt 0.564255 0.974479
vt 0.589986 0.856236
vt 0.677232 0.885378
vt 0.633549 0.978099
vt 0.202167 0.740896
vt 0.323103 0.748615
vt 0.449932 0.778355
vt 0.538105 0.766896
vt 0.596897 0.712442
vt 0.170243 0.711096
vt 0.245252 0.640455
vt 0.317268 0.696704
vt 0.439849 0.704633
vt 0.465789 0.634860
vt 0.076684 0.771833
vt 0.033450 0.974329
vt 0.129433 0.965263
vt 0.163900 0.596443
vt 0.330971 0.609040
vt 0.332707 0.615562
vt 0.164109 0.589891
vt 0.297162 0.523350
vt 0.170303 0.523350
vt 0.296773 0.441968
vt 0.429647 0.513716
vt 0.330971 0.609040
vt 0.031984 0.595127
vt 0.033570 0.523350
vt 0.170542 0.441968
vt 0.295786 0.383804
vt 0.430095 0.383804
vt 0.430963 0.441968
vt 0.031894 0.601679
vt 0.565721 0.383804
vt 0.566200 0.441968
vt 0.572633 0.523350
vt 0.431651 0.598538
vt 0.332707 0.615562
vt 0.431950 0.606885
vt 0.702095 0.441968
vt 0.702095 0.523350
vt 0.572633 0.609040
vt 0.572872 0.615562
vt 0.702095 0.383804
vt 0.702095 0.609040
vt 0.702095 0.615562
vt 0.162972 0.383804
vt 0.033540 0.441968
vt 0.031356 0.383804
vt 0.969996 0.279504
vt 0.789281 0.293387
vt 0.788593 0.286865
vt 0.970116 0.272952
vt 0.838499 0.201175
vt 0.971671 0.201175
vt 0.838499 0.119793
vt 0.971641 0.119793
vt 0.838499 0.061629
vt 0.969457 0.061629
vt 0.706912 0.201175
vt 0.707092 0.119793
vt 0.707570 0.061629
vt 0.575146 0.119793
vt 0.575954 0.061629
vt 0.443110 0.061629
vt 0.788593 0.286865
vt 0.706583 0.238933
vt 0.618470 0.286865
vt 0.574817 0.201175
vt 0.411904 0.201175
vt 0.409511 0.119793
vt 0.308831 0.061629
vt 0.280916 0.119793
vt 0.173205 0.061629
vt 0.706643 0.245456
vt 0.619906 0.293387
vt 0.706643 0.245456
vt 0.706583 0.238933
vt 0.789281 0.293387
vt 0.410408 0.293387
vt 0.618470 0.286865
vt 0.619906 0.293387
vt 0.411904 0.286865
vt 0.282801 0.286865
vt 0.282801 0.201175
vt 0.281604 0.293387
vt 0.165905 0.286865
vt 0.165905 0.201175
vt 0.172696 0.119793
vt 0.036801 0.119793
vt 0.036801 0.061629
vt 0.165635 0.293387
vt 0.036801 0.286865
vt 0.036801 0.201175
vt 0.036801 0.293387
vt 0.162972 0.341827
vt 0.031356 0.383804
vt 0.031356 0.341827
vt 0.162972 0.383804
vt 0.295786 0.341827
vt 0.295786 0.383804
vt 0.430095 0.341827
vt 0.430095 0.383804
vt 0.565721 0.341827
vt 0.565721 0.383804
vt 0.702095 0.341827
vt 0.702095 0.383804
vt 0.969457 0.019622
vt 0.969457 0.061629
vt 0.838499 0.061629
vt 0.838499 0.019622
vt 0.707570 0.061629
vt 0.707570 0.019622
vt 0.575954 0.061629
vt 0.575954 0.019622
vt 0.443110 0.061629
vt 0.443110 0.019622
vt 0.308831 0.061629
vt 0.308831 0.019622
vt 0.173205 0.061629
vt 0.173205 0.019622
vt 0.036801 0.061629
vt 0.036801 0.019622
vt 0.842867 0.654577
vt 0.759092 0.785416
vt 0.772855 0.497768
vt 0.890918 0.597281
vt 0.889332 0.724470
vt 0.851334 0.814019
vt 0.755951 0.855249
vt 0.764986 0.951261
vt 0.907673 0.871794
vt 0.846218 0.483437
vt 0.913597 0.436523
vt 0.968919 0.583877
vt 0.967931 0.740985
vt 0.765136 0.420426
vt 0.768786 0.351132
vn 0.0000 -1.0000 0.0000
vn 0.8138 0.3865 -0.4339
vn 0.3254 0.9409 -0.0941
vn 0.6310 0.7638 -0.1356
vn 0.2777 0.9170 -0.2862
vn -0.4234 0.9059 0.0000
vn -0.2550 0.9404 0.2248
vn -0.8176 0.4621 0.3434
vn -0.9317 0.3631 -0.0027
vn -0.9919 0.0201 0.1254
vn -0.9257 0.0464 0.3753
vn 0.4674 0.3931 -0.7919
vn -0.0118 0.9051 -0.4251
vn -0.2730 0.8971 -0.3474
vn -0.7794 0.4107 -0.4731
vn -0.8627 0.0470 -0.5035
vn 0.5462 -0.0425 -0.8366
vn 0.1073 -0.0686 -0.9919
vn -0.0309 0.3925 -0.9192
vn -0.4690 0.4393 -0.7662
vn -0.4814 0.0342 -0.8758
vn 0.8220 -0.0337 -0.5685
vn 0.9664 -0.0563 -0.2509
vn 0.9777 0.0000 -0.2101
vn 0.3389 0.9144 0.2214
vn 0.7386 0.6335 0.2306
vn 0.3954 0.8987 0.1894
vn 0.7621 0.4474 0.4679
vn 0.9897 -0.1364 0.0417
vn 0.8426 -0.1911 0.5035
vn 0.9016 -0.4317 0.0249
vn 0.8589 -0.1595 -0.4867
vn 0.8599 0.3902 -0.3290
vn 0.6426 0.4554 0.6162
vn 0.6926 -0.1933 0.6948
vn 0.7888 -0.3977 0.4686
vn 0.8090 -0.5876 0.0154
vn 0.6948 -0.5970 -0.4011
vn 0.7752 -0.4451 -0.4483
vn 0.3218 0.9074 0.2702
vn 0.3715 -0.5698 -0.7330
vn 0.4006 -0.4813 -0.7797
vn 0.4860 -0.1986 -0.8511
vn 0.7297 0.5114 -0.4538
vn 0.3848 0.8889 -0.2484
vn 0.3376 0.9149 -0.2211
vn 0.1769 -0.4634 -0.8683
vn 0.2198 -0.2502 -0.9429
vn 0.4602 0.5091 -0.7273
vn 0.2388 0.9149 -0.3253
vn 0.2374 -0.3978 -0.8862
vn 0.1960 0.5023 -0.8422
vn 0.0932 0.9106 -0.4027
vn 0.7320 -0.5201 0.4400
vn 0.6563 -0.3722 0.6563
vn 0.6165 -0.4896 0.6165
vn 0.1190 0.9113 0.3941
vn 0.1340 0.8694 0.4755
vn 0.1487 0.6435 0.7508
vn 0.2431 0.4469 0.8609
vn 0.0368 -0.0885 0.9954
vn 0.3239 -0.2000 0.9247
vn 0.0346 -0.4286 0.9028
vn 0.2894 -0.3889 0.8746
vn 0.0260 -0.5814 0.8132
vn 0.2270 -0.4795 0.8477
vn -0.4968 -0.0814 0.8640
vn -0.4515 -0.4296 0.7820
vn -0.4011 -0.5970 0.6948
vn -0.7928 -0.4240 0.4378
vn -0.6948 -0.5970 0.4010
vn -0.8029 -0.5948 0.0396
vn -0.5276 0.4844 0.6978
vn -0.3800 0.3873 0.8399
vn -0.3835 0.4425 0.8106
vn -0.8824 -0.0890 0.4620
vn -0.9908 -0.1331 -0.0239
vn -0.8965 -0.4409 -0.0430
vn -0.6393 -0.7003 -0.3175
vn -0.7129 -0.4722 -0.5184
vn -0.3081 -0.6044 -0.7346
vn 0.0853 0.8020 0.5912
vn 0.0252 0.7568 0.6531
vn -0.5718 0.7953 0.2012
vn -0.5705 0.7972 0.1971
vn -0.5851 0.7723 0.2474
vn -0.4046 0.9144 0.0138
vn -0.7271 0.6438 0.2383
vn -0.4143 0.9001 0.1350
vn -0.8561 0.5168 -0.0001
vn -0.7280 0.5025 -0.4664
vn -0.8250 -0.1468 -0.5456
vn -0.3363 0.9152 -0.2220
vn -0.3793 0.5117 -0.7708
vn -0.4167 -0.2105 -0.8843
vn -0.3251 -0.4795 -0.8151
vn -0.1750 -0.4650 -0.8678
vn -0.2374 -0.3978 -0.8862
vn -0.1725 0.9147 -0.3653
vn -0.1903 0.5036 -0.8427
vn -0.2137 -0.2508 -0.9441
vn -0.0904 0.9108 -0.4028
vn 0.8661 0.0000 0.4999
vn 0.7071 0.0000 0.7071
vn 1.0000 0.0000 -0.0001
vn 0.8660 0.0000 -0.5000
vn 0.5000 0.0000 -0.8660
vn 0.2587 0.0000 -0.9659
vn 0.2587 0.0000 0.9659
vn 0.0000 0.0000 1.0000
vn -0.5000 0.0000 0.8660
vn -0.8661 0.0000 0.4999
vn -1.0000 0.0000 -0.0001
vn -0.8660 0.0000 -0.5000
vn -0.5000 0.0000 -0.8660
vn -0.2587 0.0000 -0.9659
vn 0.0754 0.9007 0.4279
vn 0.3953 0.8719 0.2889
vn -0.2362 0.8438 0.4818
vn -0.0176 0.4929 0.8699
vn 0.3630 0.4755 0.8013
vn 0.7138 0.4237 0.5575
vn 0.9030 0.3548 0.2422
vn 0.9658 0.0000 0.2590
vn 0.8201 0.0369 0.5710
vn -0.4305 0.4654 0.7733
vn -0.4926 0.1429 0.8584
vn -0.0032 0.1642 0.9864
vn 0.4228 0.1488 0.8939
vn -0.6592 0.3060 0.6868
vn -0.7281 0.0552 0.6832
usemtl DIFFUSE.001
s 1
f 114/1/1 113/2/1 117/3/1
f 111/4/1 114/1/1 117/3/1
f 111/4/1 117/3/1 119/5/1
f 112/6/1 111/4/1 119/5/1
f 112/6/1 115/7/1 111/4/1
f 112/6/1 129/8/1 115/7/1
f 112/6/1 130/9/1 129/8/1
f 130/9/1 132/10/1 129/8/1
f 130/9/1 131/11/1 132/10/1
f 131/11/1 121/12/1 132/10/1
f 5/13/2 140/14/3 139/15/4
f 5/13/2 141/16/5 140/14/3
f 141/16/5 120/17/6 140/14/3
f 140/14/3 120/17/6 122/18/7
f 10/19/8 122/18/7 120/17/6
f 10/19/8 120/17/6 12/20/9
f 10/19/8 12/20/9 13/21/10
f 10/19/8 13/21/10 11/22/11
f 22/23/12 141/16/5 5/13/2
f 116/24/13 141/16/5 22/23/12
f 141/16/5 116/24/13 118/25/14
f 141/16/5 118/25/14 120/17/6
f 120/17/6 118/25/14 14/26/15
f 120/17/6 14/26/15 12/20/9
f 12/20/9 14/26/15 15/27/16
f 12/20/9 15/27/16 13/21/10
f 21/28/17 22/23/12 5/13/2
f 19/29/18 22/23/12 21/28/17
f 19/29/18 18/30/19 22/23/12
f 116/24/13 22/23/12 18/30/19
f 16/31/20 116/24/13 18/30/19
f 16/31/20 118/25/14 116/24/13
f 14/26/15 118/25/14 16/31/20
f 15/27/16 14/26/15 16/31/20
f 15/27/16 16/31/20 17/32/21
f 17/32/21 16/31/20 18/30/19
f 17/32/21 18/30/19 19/29/18
f 21/28/17 5/13/2 4/33/22
f 5/13/2 6/34/23 4/33/22
f 5/13/2 20/35/24 6/34/23
f 42/36/25 43/37/26 39/38/27
f 42/36/25 67/39/28 43/37/26
f 52/40/29 43/37/26 67/39/28
f 52/40/29 67/39/28 71/41/30
f 76/42/31 52/40/29 71/41/30
f 92/43/32 52/40/29 76/42/31
f 92/43/32 44/44/33 52/40/29
f 42/36/25 46/45/34 67/39/28
f 67/39/28 46/45/34 70/46/35
f 67/39/28 70/46/35 71/41/30
f 38/47/36 71/41/30 70/46/35
f 76/42/31 71/41/30 38/47/36
f 63/48/37 76/42/31 38/47/36
f 123/49/38 76/42/31 63/48/37
f 123/49/38 126/50/39 76/42/31
f 92/43/32 76/42/31 126/50/39
f 42/36/25 41/51/40 46/45/34
f 125/52/41 126/50/39 123/49/38
f 125/52/41 109/53/42 126/50/39
f 109/53/42 92/43/32 126/50/39
f 109/53/42 37/54/43 92/43/32
f 37/54/43 54/55/44 92/43/32
f 92/43/32 54/55/44 44/44/33
f 95/56/45 44/44/33 54/55/44
f 95/56/45 54/55/44 100/57/46
f 90/58/47 109/53/42 125/52/41
f 90/58/47 37/54/43 109/53/42
f 90/58/47 77/59/48 37/54/43
f 77/59/48 51/60/49 37/54/43
f 37/54/43 51/60/49 54/55/44
f 40/61/50 54/55/44 51/60/49
f 40/61/50 100/57/46 54/55/44
f 90/58/47 125/52/41 107/62/51
f 77/59/48 53/63/52 51/60/49
f 40/61/50 51/60/49 53/63/52
f 40/61/50 53/63/52 101/64/53
f 63/48/37 38/47/36 110/65/54
f 110/65/54 38/47/36 93/66/55
f 110/65/54 93/66/55 75/67/56
f 38/47/36 70/46/35 93/66/55
f 79/68/57 64/69/58 68/70/59
f 79/68/57 68/70/59 83/71/60
f 83/71/60 68/70/59 106/72/61
f 83/71/60 106/72/61 86/73/62
f 86/73/62 106/72/61 34/74/63
f 86/73/62 34/74/63 62/75/64
f 62/75/64 34/74/63 108/76/65
f 62/75/64 108/76/65 36/77/66
f 34/74/63 106/72/61 105/78/67
f 34/74/63 105/78/67 35/79/68
f 108/76/65 34/74/63 35/79/68
f 108/76/65 35/79/68 33/80/69
f 33/80/69 35/79/68 59/81/70
f 33/80/69 59/81/70 58/82/71
f 59/81/70 89/83/72 58/82/71
f 84/84/73 105/78/67 106/72/61
f 84/84/73 85/85/74 105/78/67
f 105/78/67 85/85/74 45/86/75
f 105/78/67 45/86/75 87/87/76
f 35/79/68 105/78/67 87/87/76
f 35/79/68 87/87/76 59/81/70
f 59/81/70 87/87/76 55/88/77
f 59/81/70 55/88/77 72/89/78
f 59/81/70 72/89/78 89/83/72
f 72/89/78 61/90/79 89/83/72
f 72/89/78 91/91/80 61/90/79
f 91/91/80 74/92/81 61/90/79
f 82/93/82 45/86/75 85/85/74
f 82/93/82 81/94/83 45/86/75
f 66/95/84 97/96/85 84/84/73
f 66/95/84 84/84/73 80/97/86
f 99/98/87 47/99/88 98/100/89
f 99/98/87 48/101/90 47/99/88
f 87/87/76 47/99/88 48/101/90
f 87/87/76 48/101/90 55/88/77
f 55/88/77 48/101/90 49/102/91
f 55/88/77 49/102/91 57/103/92
f 72/89/78 55/88/77 57/103/92
f 72/89/78 57/103/92 91/91/80
f 99/98/87 49/102/91 48/101/90
f 99/98/87 102/104/93 49/102/91
f 102/104/93 50/105/94 49/102/91
f 57/103/92 49/102/91 50/105/94
f 57/103/92 50/105/94 94/106/95
f 57/103/92 94/106/95 60/107/96
f 57/103/92 60/107/96 91/91/80
f 91/91/80 60/107/96 74/92/81
f 74/92/81 60/107/96 73/108/97
f 74/92/81 73/108/97 88/109/98
f 102/104/93 103/110/99 50/105/94
f 103/110/99 69/111/100 50/105/94
f 94/106/95 50/105/94 69/111/100
f 94/106/95 69/111/100 56/112/101
f 94/106/95 56/112/101 73/108/97
f 94/106/95 73/108/97 60/107/96
f 103/110/99 104/113/102 69/111/100
f 145/114/103 146/115/104 128/116/104
f 145/114/103 134/117/103 146/115/104
f 133/118/105 134/117/103 145/114/103
f 133/118/105 127/119/105 134/117/103
f 154/120/106 127/119/105 133/118/105
f 154/120/106 156/121/106 127/119/105
f 155/122/107 156/121/106 154/120/106
f 155/122/107 152/123/107 156/121/106
f 150/124/108 152/123/107 155/122/107
f 150/124/108 151/125/108 152/123/107
f 135/126/109 137/127/109 136/128/110
f 135/126/109 136/128/110 138/129/110
f 138/129/110 136/128/110 148/130/111
f 138/129/110 148/130/111 147/131/111
f 147/131/111 148/130/111 144/132/112
f 147/131/111 144/132/112 143/133/112
f 143/133/112 144/132/112 124/134/113
f 143/133/112 124/134/113 142/135/113
f 142/135/113 124/134/113 149/136/114
f 142/135/113 149/136/114 32/137/114
f 32/137/114 149/136/114 31/138/115
f 32/137/114 31/138/115 29/139/115
f 29/139/115 31/138/115 30/140/116
f 29/139/115 30/140/116 153/141/116
f 9/142/117 7/143/118 8/144/119
f 25/145/120 9/142/117 8/144/119
f 27/146/121 9/142/117 25/145/120
f 1/147/122 9/142/117 27/146/121
f 1/147/122 7/143/118 9/142/117
f 2/148/123 7/143/118 1/147/122
f 3/149/124 2/148/123 1/147/122
f 3/149/124 1/147/122 28/150/125
f 25/145/120 8/144/119 65/151/126
f 25/145/120 65/151/126 78/152/127
f 25/145/120 78/152/127 24/153/128
f 26/154/129 25/145/120 24/153/128
f 26/154/129 27/146/121 25/145/120
f 28/150/125 27/146/121 26/154/129
f 28/150/125 1/147/122 27/146/121
f 65/151/126 8/144/119 23/155/130
f 65/151/126 23/155/130 96/156/131
f 65/151/126 96/156/131 78/152/127
