# Blender v2.79 (sub 0) OBJ File: 'geometric.blend'
# www.blender.org
mtllib geometric.mtl
o s4studio_mesh_1
v 0.020447 -0.000031 0.057314
v -0.025788 -0.000031 0.080111
v -0.036683 0.093417 0.111972
v 0.028809 0.093692 0.080447
v 0.087619 0.093692 -0.000061
v 0.028809 0.093692 0.080447
v 0.000000 0.079867 0.000000
v 0.087619 0.093692 -0.000061
v 0.095401 0.093387 0.069521
v -0.065371 0.093814 0.049471
v -0.118076 0.093570 -0.000061
v 0.028809 0.093692 0.080447
v -0.065432 0.094089 -0.049593
v -0.065432 0.094089 -0.049593
v -0.036714 0.093814 -0.112247
v 0.000000 0.079867 0.000000
v 0.000000 0.079867 0.000000
v 0.028871 0.093966 -0.080599
v 0.000000 0.079867 0.000000
v -0.036714 0.093814 -0.112247
v 0.000000 0.079867 0.000000
v 0.095401 0.093387 -0.069674
v -0.065371 0.093814 0.049471
v 0.028871 0.093966 -0.080599
v 0.000000 0.079867 0.000000
v -0.025788 -0.000031 0.080111
v 0.071230 -0.000031 -0.053926
v -0.036683 0.093417 0.111972
v 0.019898 -0.000031 -0.062685
v -0.053713 -0.000031 0.038636
v -0.053713 -0.000031 -0.038759
v -0.031220 -0.000031 -0.087222
v -0.094546 -0.000031 -0.000061
v 0.020447 -0.000031 0.057314
v 0.071230 -0.000031 0.053804
v 0.065371 -0.000031 -0.000061
v 0.065371 -0.000031 -0.000061
v 0.065371 -0.000031 -0.000061
v 0.095401 0.093387 0.069521
v 0.071230 -0.000031 -0.053926
v 0.087619 0.093692 -0.000061
v 0.095401 0.093387 0.069521
v 0.095401 0.093387 -0.069674
v 0.071230 -0.000031 0.053804
v 0.087619 0.093692 -0.000061
v 0.028809 0.093692 0.080447
v -0.053713 -0.000031 0.038636
v -0.118076 0.093570 -0.000061
v -0.025788 -0.000031 0.080111
v -0.031220 -0.000031 -0.087222
v -0.094546 -0.000031 -0.000061
v -0.036714 0.093814 -0.112247
v 0.095401 0.093387 -0.069674
v 0.019898 -0.000031 -0.062685
v -0.031220 -0.000031 -0.087222
v 0.019898 -0.000031 -0.062685
v 0.028871 0.093966 -0.080599
v 0.071230 -0.000031 -0.053926
v -0.065371 0.093814 0.049471
v 0.071230 -0.000031 0.053804
v -0.036683 0.093417 0.111972
v 0.020447 -0.000031 0.057314
v -0.094546 -0.000031 -0.000061
v -0.053713 -0.000031 0.038636
v -0.118076 0.093570 -0.000061
v -0.065371 0.093814 0.049471
v -0.065432 0.094089 -0.049593
v -0.053713 -0.000031 -0.038759
v -0.065432 0.094089 -0.049593
v -0.036714 0.093814 -0.112247
v 0.028871 0.093966 -0.080599
v -0.053713 -0.000031 -0.038759
vt 0.969816 0.946902
vt 0.759527 0.735459
vt 0.967271 0.441587
vt 0.758461 0.737057
vt 0.969816 0.946902
vt 0.967271 0.441587
vt 0.037825 0.567198
vt 0.037825 0.340305
vt 0.431204 0.337730
vt 0.431204 0.622160
vt 0.967271 0.441587
vt 0.620212 0.333734
vt 0.466572 0.612275
vt 0.758461 0.737057
vt 0.967271 0.441587
vt 0.653746 0.035867
vt 0.620212 0.333734
vt 0.969757 0.067477
vt 0.967271 0.441587
vt 0.654604 0.037879
vt 0.968780 0.068572
vt 0.620419 0.335481
vt 0.465418 0.612600
vt 0.620419 0.335481
vt 0.967271 0.441587
vt 0.759527 0.735459
vt 0.126913 0.862224
vt 0.210822 0.883386
vt 0.158494 0.909195
vt 0.126913 0.774675
vt 0.210171 0.747624
vt 0.261640 0.818450
vt 0.268270 0.879391
vt 0.080682 0.818450
vt 0.268270 0.757509
vt 0.152338 0.719861
vt 0.037825 0.133834
vt 0.431204 0.078872
vt 0.431204 0.337730
vt 0.037825 0.340305
vt 0.431204 0.337730
vt 0.431204 0.622160
vt 0.037825 0.567198
vt 0.037825 0.340305
vt 0.037825 0.133834
vt 0.431204 0.078872
vt 0.431204 0.337730
vt 0.037825 0.340305
vt 0.037825 0.133834
vt 0.431204 0.078872
vt 0.431204 0.337730
vt 0.037825 0.340305
vt 0.431204 0.337730
vt 0.431204 0.622160
vt 0.037825 0.567198
vt 0.037825 0.340305
vt 0.037825 0.133834
vt 0.431204 0.078872
vt 0.431204 0.337730
vt 0.037825 0.340305
vt 0.431204 0.337730
vt 0.431204 0.622160
vt 0.037825 0.567198
vt 0.037825 0.340305
vt 0.037825 0.133834
vt 0.431204 0.078872
vt 0.431204 0.337730
vt 0.037825 0.340305
vt 0.431204 0.337730
vt 0.431204 0.622160
vt 0.037825 0.567198
vt 0.037825 0.340305
vn 0.1612 0.9844 0.0696
vn -0.0729 0.9865 0.1464
vn 0.4252 -0.2508 0.8696
vn 0.4279 -0.2524 0.8679
vn 0.4231 -0.2496 0.8710
vn 0.4210 -0.2484 0.8724
vn -0.0897 0.9935 0.0699
vn -0.1558 0.9875 -0.0217
vn -0.0892 0.9935 0.0706
vn -0.0186 0.9860 0.1658
vn -0.0913 0.9935 -0.0679
vn -0.0910 0.9935 -0.0683
vn -0.1558 0.9875 0.0217
vn -0.0220 0.9866 -0.1617
vn 0.0385 0.9934 -0.1076
vn 0.0392 0.9934 -0.1074
vn -0.0732 0.9869 -0.1434
vn 0.1595 0.9849 -0.0669
vn 0.1153 0.9933 0.0027
vn 0.1144 0.9853 -0.1266
vn 0.1153 0.9933 0.0025
vn 0.1142 0.9847 0.1317
vn 0.0000 -1.0000 0.0000
vn 0.9672 -0.2304 0.1067
vn 0.9666 -0.2317 0.1091
vn 0.9669 -0.2311 0.1078
vn 0.9675 -0.2297 0.1052
vn 0.9669 -0.2311 -0.1079
vn 0.9666 -0.2317 -0.1091
vn 0.9672 -0.2305 -0.1067
vn 0.9675 -0.2297 -0.1052
vn 0.1005 -0.2297 0.9680
vn 0.1576 -0.2033 0.9663
vn 0.1297 -0.2163 0.9677
vn 0.0668 -0.2447 0.9673
vn -0.8458 -0.1946 0.4967
vn -0.8827 -0.2405 0.4036
vn -0.8661 -0.2186 0.4494
vn -0.8181 -0.1652 0.5508
vn -0.6757 -0.1686 0.7176
vn -0.6745 -0.1695 0.7185
vn -0.6767 -0.1679 0.7168
vn -0.6782 -0.1668 0.7157
vn -0.6767 -0.1679 -0.7168
vn -0.6744 -0.1695 -0.7186
vn -0.6757 -0.1686 -0.7176
vn -0.6782 -0.1668 -0.7157
vn -0.8967 -0.1611 -0.4122
vn -0.8973 -0.1620 -0.4106
vn -0.8962 -0.1603 -0.4137
vn -0.8955 -0.1593 -0.4156
vn 0.4241 -0.2090 -0.8812
vn 0.4253 -0.2098 -0.8804
vn 0.4246 -0.2094 -0.8808
vn 0.4232 -0.2084 -0.8817
vn 0.1594 -0.2023 -0.9662
vn 0.1569 -0.2035 -0.9664
vn 0.1618 -0.2012 -0.9661
vn 0.1648 -0.1998 -0.9658
usemtl DIFFUSE.001
s 1
f 15/1/1 14/2/1 17/3/1
f 18/4/2 20/5/2 19/6/2
f 2/7/3 1/8/4 4/9/5
f 2/7/3 4/9/5 3/10/6
f 21/11/7 5/12/8 22/13/9
f 24/14/10 21/11/7 22/13/9
f 7/15/11 9/16/12 8/17/13
f 7/15/11 6/18/14 9/16/12
f 25/19/15 28/20/16 12/21/17
f 25/19/15 23/22/18 28/20/16
f 11/23/19 10/24/20 16/25/21
f 13/26/22 11/23/19 16/25/21
f 30/27/23 34/28/23 26/29/23
f 31/30/23 34/28/23 30/27/23
f 29/31/23 34/28/23 31/30/23
f 34/28/23 29/31/23 36/32/23
f 34/28/23 36/32/23 35/33/23
f 31/30/23 30/27/23 33/34/23
f 36/32/23 29/31/23 27/35/23
f 29/31/23 31/30/23 32/36/23
f 40/37/24 43/38/25 45/39/26
f 40/37/24 45/39/26 37/40/27
f 41/41/28 39/42/29 44/43/30
f 41/41/28 44/43/30 38/44/31
f 60/45/32 42/46/33 46/47/34
f 60/45/32 46/47/34 62/48/35
f 49/49/36 61/50/37 59/51/38
f 49/49/36 59/51/38 47/52/39
f 66/53/40 48/54/41 63/55/42
f 66/53/40 63/55/42 64/56/43
f 51/57/44 65/58/45 67/59/46
f 51/57/44 67/59/46 68/60/47
f 69/61/48 52/62/49 50/63/50
f 69/61/48 50/63/50 72/64/51
f 55/65/52 70/66/53 71/67/54
f 55/65/52 71/67/54 54/68/55
f 57/69/56 53/70/57 58/71/58
f 57/69/56 58/71/58 56/72/59
