# Blender v2.79 (sub 0) OBJ File: 'grid.blend'
# www.blender.org
mtllib grid.mtl
o s4studio_mesh_1
v 0.165807 0.213385 -0.053407
v 0.165807 0.213385 0.053407
v -0.142705 0.231208 0.053407
v 0.050874 0.407361 0.053407
v 0.142979 0.462508 0.053407
v 0.050874 0.407361 -0.053407
v 0.050874 0.462508 0.053407
v -0.052950 0.462508 0.053407
v -0.225074 -0.000000 0.053407
v -0.052950 0.462508 -0.053407
v -0.052950 0.407361 -0.053407
v -0.052950 0.407361 0.053407
v 0.050874 0.407361 -0.053407
v 0.050874 0.407361 0.053407
v 0.142979 0.462508 -0.053407
v 0.050874 0.462508 -0.053407
v -0.225074 0.000000 -0.053407
v -0.052950 0.407361 0.053407
v -0.052950 0.407361 -0.053407
v -0.142705 0.231208 0.053407
v 0.165807 0.289682 0.053407
v 0.165807 0.289682 -0.053407
v 0.050874 0.462508 0.053407
v 0.050874 0.462508 -0.053407
v -0.225074 -0.000000 0.053407
v 0.050874 0.407361 -0.053407
v 0.142979 0.462508 0.053407
v 0.142979 0.462508 -0.053407
v 0.225074 -0.000000 0.053407
v -0.225074 0.000000 -0.053407
v -0.161718 0.231208 -0.053407
v -0.142705 0.231208 -0.053407
v 0.225074 0.000000 -0.053407
v 0.050874 0.407361 0.053407
v -0.052950 0.462508 -0.053407
v -0.052950 0.462508 0.053407
v -0.225074 0.113742 -0.053407
v 0.225074 -0.000000 0.053407
v 0.165807 0.213385 -0.053407
v 0.165807 0.213385 0.053407
v 0.195502 0.213385 -0.053407
v 0.195502 0.213385 0.053407
v 0.195502 0.133793 0.053407
v -0.225074 0.113742 0.053407
v -0.142705 0.231208 -0.053407
v -0.142705 0.231208 -0.053407
v -0.195471 0.462508 -0.053407
v -0.195471 0.289682 -0.053407
v -0.052950 0.407361 -0.053407
v -0.052950 0.407361 0.053407
v -0.195471 0.462508 0.053407
v -0.142705 0.289682 -0.053407
v 0.142979 0.379498 -0.053407
v 0.218574 0.379498 -0.053407
v 0.165807 0.289682 -0.053407
v 0.218574 0.289682 -0.053407
v 0.195502 0.213385 -0.053407
v 0.165807 0.213385 -0.053407
v 0.195502 0.133793 -0.053407
v 0.195502 0.133793 0.053407
v -0.195471 0.289682 0.053407
v -0.195471 0.289682 -0.053407
v -0.142705 0.231208 0.053407
v 0.195502 0.213385 0.053407
v 0.142979 0.379498 -0.053407
v -0.161718 0.231208 0.053407
v 0.218574 0.289682 -0.053407
v 0.218574 0.289682 0.053407
v 0.195502 0.133793 0.053407
v 0.225074 0.133793 0.053407
v 0.195502 0.133793 -0.053407
v 0.225074 0.133793 -0.053407
v 0.225074 0.000000 -0.053407
v 0.225074 0.133793 0.053407
v 0.225074 -0.000000 0.053407
v -0.225074 0.113742 0.053407
v 0.165807 0.213385 0.053407
v 0.218574 0.379498 0.053407
v 0.218574 0.379498 -0.053407
v -0.161718 0.231208 0.053407
v 0.165807 0.289682 0.053407
v 0.165807 0.289682 -0.053407
v 0.225074 0.000000 -0.053407
v -0.142705 0.289682 0.053407
v 0.142979 0.379498 0.053407
v 0.165807 0.289682 0.053407
v -0.195471 0.289682 0.053407
v -0.161718 0.113742 0.053407
v -0.161718 0.113742 -0.053407
v -0.161718 0.113742 0.053407
v -0.225074 0.113742 -0.053407
v -0.225074 0.000000 -0.053407
v 0.218574 0.379498 0.053407
v -0.195471 0.462508 0.053407
v -0.195471 0.462508 -0.053407
v 0.218574 0.289682 0.053407
v -0.142705 0.289682 -0.053407
v -0.142705 0.289682 0.053407
v 0.142979 0.379498 0.053407
v -0.161718 0.113742 0.053407
v -0.161718 0.113742 -0.053407
v -0.161718 0.231208 -0.053407
v -0.225074 -0.000000 0.053407
v -0.161718 0.113742 -0.053407
v 0.195502 0.133793 -0.053407
v 0.225074 0.133793 -0.053407
vt 0.381140 0.981544
vt 0.289883 0.981544
vt 0.289883 0.866781
vt 0.381140 0.808859
vt 0.403744 0.621956
vt 0.456045 0.808859
vt 0.456045 0.621956
vt 0.098020 0.621956
vt 0.098020 0.500310
vt 0.403744 0.463248
vt 0.079204 0.255966
vt 0.433171 0.297657
vt 0.433171 0.463248
vt 0.186993 0.866781
vt 0.045749 0.981544
vt 0.045749 0.621956
vt 0.186993 0.981544
vt 0.079204 0.500310
vt 0.508166 0.981424
vt 0.614693 0.854608
vt 0.614693 0.981394
vt 0.508166 0.854638
vt 0.614693 0.669178
vt 0.508166 0.669178
vt 0.614693 0.478397
vt 0.508166 0.478397
vt 0.614693 0.304660
vt 0.508166 0.304660
vt 0.614693 0.098189
vt 0.508166 0.098219
vt 0.614693 0.024486
vt 0.508166 0.024486
vt 0.289883 0.866781
vt 0.289883 0.981544
vt 0.381140 0.981544
vt 0.381140 0.808859
vt 0.403744 0.621956
vt 0.098020 0.621956
vt 0.186993 0.866781
vt 0.045749 0.981544
vt 0.186993 0.981544
vt 0.456045 0.808859
vt 0.456045 0.621956
vt 0.045749 0.621956
vt 0.098020 0.500310
vt 0.403744 0.463248
vt 0.079204 0.255966
vt 0.079204 0.500310
vt 0.433171 0.297657
vt 0.462478 0.019316
vt 0.016412 0.019316
vt 0.016412 0.255966
vt 0.433171 0.463248
vt 0.462478 0.297657
vt 0.637417 0.908352
vt 0.739766 0.781626
vt 0.739766 0.908442
vt 0.637417 0.781596
vt 0.739796 0.489188
vt 0.637417 0.489188
vt 0.739796 0.187372
vt 0.637417 0.187372
vt 0.739796 0.170630
vt 0.637417 0.170630
vt 0.739796 0.036269
vt 0.637417 0.036269
vt 0.868446 0.696471
vt 0.868446 0.907150
vt 0.771267 0.907150
vt 0.771267 0.696471
vt 0.553254 0.062841
vt 0.553254 0.062029
vt 0.567351 0.062029
vt 0.567351 0.062841
vt 0.984922 0.352663
vt 0.984922 0.531450
vt 0.887743 0.531450
vt 0.887743 0.352663
vt 0.887743 0.886289
vt 0.984922 0.856622
vt 0.984922 0.886289
vt 0.887743 0.856622
vt 0.984922 0.612608
vt 0.887743 0.612608
vt 0.984922 0.032512
vt 0.887743 0.183916
vt 0.887743 0.032512
vt 0.984922 0.183916
vt 0.887743 0.252148
vt 0.984922 0.252148
vt 0.771267 0.322214
vt 0.868446 0.188425
vt 0.868446 0.322274
vt 0.771267 0.188425
vt 0.868446 0.025118
vt 0.771267 0.025118
vt 0.016412 0.255966
vt 0.016412 0.019316
vt 0.462478 0.019316
vt 0.462478 0.297657
vt 0.868446 0.357022
vt 0.771267 0.601036
vt 0.771267 0.357022
vt 0.868446 0.601036
vt 0.868446 0.676001
vt 0.771267 0.676001
vn 0.0000 0.0000 1.0000
vn -1.0000 0.0000 0.0000
vn -0.7071 0.7071 0.0000
vn 0.7071 0.7071 0.0000
vn 0.7071 -0.7071 0.0000
vn 0.0000 -1.0000 0.0000
vn 0.0000 0.0000 -1.0000
vn 1.0000 0.0000 0.0000
vn -0.7071 -0.7071 0.0000
vn 0.0000 1.0000 0.0000
usemtl DIFFUSE.001
s 1
f 5/1/1 7/2/1 34/3/1
f 5/1/1 34/3/1 85/4/1
f 86/5/1 85/4/1 34/3/1
f 93/6/1 85/4/1 86/5/1
f 93/6/1 86/5/1 96/7/1
f 86/5/1 34/3/1 84/8/1
f 63/9/1 86/5/1 84/8/1
f 63/9/1 77/10/1 86/5/1
f 77/10/1 63/9/1 100/11/1
f 77/10/1 100/11/1 43/12/1
f 64/13/1 77/10/1 43/12/1
f 34/3/1 50/14/1 84/8/1
f 84/8/1 50/14/1 51/15/1
f 84/8/1 51/15/1 87/16/1
f 50/14/1 8/17/1 51/15/1
f 63/9/1 80/18/1 100/11/1
f 4/19/2 24/20/3 6/21/2
f 4/19/2 23/22/3 24/20/3
f 28/23/4 24/20/3 23/22/3
f 28/23/4 23/22/3 27/24/4
f 65/25/4 28/23/4 27/24/4
f 65/25/4 27/24/4 99/26/4
f 79/27/4 65/25/4 99/26/4
f 79/27/4 99/26/4 78/28/4
f 67/29/5 79/27/4 78/28/4
f 67/29/5 78/28/4 68/30/5
f 82/31/6 67/29/5 68/30/5
f 82/31/6 68/30/5 81/32/6
f 26/33/7 16/34/7 15/35/7
f 26/33/7 15/35/7 53/36/7
f 55/37/7 26/33/7 53/36/7
f 55/37/7 52/38/7 26/33/7
f 52/38/7 49/39/7 26/33/7
f 52/38/7 47/40/7 49/39/7
f 47/40/7 10/41/7 49/39/7
f 55/37/7 53/36/7 54/42/7
f 55/37/7 54/42/7 56/43/7
f 52/38/7 48/44/7 47/40/7
f 45/45/7 52/38/7 55/37/7
f 45/45/7 55/37/7 58/46/7
f 104/47/7 45/45/7 58/46/7
f 104/47/7 31/48/7 45/45/7
f 105/49/7 104/47/7 58/46/7
f 83/50/7 104/47/7 105/49/7
f 83/50/7 92/51/7 104/47/7
f 92/51/7 91/52/7 104/47/7
f 58/46/7 57/53/7 105/49/7
f 105/49/7 106/54/7 83/50/7
f 19/55/8 36/56/4 18/57/8
f 19/55/8 35/58/4 36/56/4
f 35/58/4 94/59/3 36/56/4
f 35/58/4 95/60/3 94/59/3
f 61/61/9 94/59/3 95/60/3
f 61/61/9 95/60/3 62/62/9
f 98/63/9 61/61/9 62/62/9
f 98/63/9 62/62/9 97/64/9
f 3/65/2 98/63/9 97/64/9
f 3/65/2 97/64/9 32/66/2
f 13/67/10 11/68/10 12/69/10
f 13/67/10 12/69/10 14/70/10
f 29/71/6 25/72/6 30/73/6
f 29/71/6 30/73/6 33/74/6
f 1/75/8 22/76/8 21/77/8
f 1/75/8 21/77/8 2/78/8
f 46/79/10 66/80/3 20/81/10
f 46/79/10 102/82/3 66/80/3
f 88/83/2 66/80/3 102/82/3
f 88/83/2 102/82/3 101/84/2
f 59/85/8 42/86/4 60/87/8
f 59/85/8 41/88/4 42/86/4
f 41/88/4 40/89/10 42/86/4
f 41/88/4 39/90/10 40/89/10
f 89/91/10 76/92/3 90/93/10
f 89/91/10 37/94/3 76/92/3
f 9/95/2 76/92/3 37/94/3
f 9/95/2 37/94/3 17/96/2
f 44/97/1 103/98/1 100/11/1
f 100/11/1 103/98/1 38/99/1
f 100/11/1 38/99/1 43/12/1
f 43/12/1 38/99/1 74/100/1
f 73/101/8 70/102/4 75/103/8
f 73/101/8 72/104/4 70/102/4
f 71/105/10 70/102/4 72/104/4
f 71/105/10 69/106/10 70/102/4
